<svg width="9" height="10" viewBox="0 0 9 10" fill="none" xmlns="http://www.w3.org/2000/svg">
<path d="M7.68899 1.32286C8.56284 2.20477 8.99977 3.26595 8.99977 4.50496C8.99977 5.74541 8.56284 6.80949 7.68899 7.70007C6.81514 8.59065 5.75507 9.03594 4.51019 9.03594C3.26531 9.03594 2.20953 8.59499 1.34428 7.71308C0.479023 6.83117 0.0463867 5.76999 0.0463867 4.53098C0.0463867 3.29198 0.483315 2.22646 1.35717 1.33587C2.23102 0.445291 3.2868 0 4.52308 0C5.75936 0 6.81371 0.440954 7.68899 1.32286ZM7.3108 7.32562C8.07291 6.54347 8.4554 5.60807 8.4554 4.51797C8.4554 3.42788 8.07865 2.49537 7.3237 1.72189C6.56876 0.948413 5.64333 0.560951 4.54744 0.560951C3.45011 0.560951 2.52325 0.949858 1.76544 1.72767C1.00619 2.50549 0.628007 3.44233 0.628007 4.53532C0.628007 5.62975 1.00333 6.56371 1.75398 7.33719C2.50463 8.11066 3.42719 8.49812 4.52451 8.49812C5.61897 8.49957 6.54869 8.10777 7.3108 7.32562ZM6.58738 6.09095C6.02725 6.68226 5.38834 6.97719 4.67063 6.97719C3.95293 6.97719 3.35556 6.75021 2.87709 6.29769C2.39862 5.84373 2.15939 5.24808 2.15939 4.50641C2.15939 3.76618 2.40722 3.16764 2.90145 2.70934C3.39568 2.25248 4.01023 2.02261 4.7437 2.02261C5.47716 2.02261 6.07882 2.27272 6.54869 2.7715L5.95562 3.50739C5.52729 3.14162 5.10613 2.95801 4.69356 2.95801C4.28099 2.95801 3.91998 3.0968 3.61198 3.37583C3.30256 3.65486 3.14784 4.0163 3.14784 4.46159C3.14784 4.90688 3.30256 5.28277 3.61198 5.59072C3.92141 5.89866 4.2996 6.05191 4.74941 6.05191C5.19923 6.05191 5.61324 5.84806 5.99143 5.44036L6.58738 6.09095Z" fill="#002B49"/>
</svg>
