<svg width="12" height="13" viewBox="0 0 12 13" fill="none" xmlns="http://www.w3.org/2000/svg">
<path d="M10.5499 0.617065H1.4499C1.10544 0.618094 0.775375 0.755388 0.5318 0.998963C0.288225 1.24254 0.150931 1.5726 0.149902 1.91707L0.149902 11.0171C0.150931 11.3615 0.288225 11.6916 0.5318 11.9352C0.775375 12.1787 1.10544 12.316 1.4499 12.3171H10.5499C10.8944 12.316 11.2244 12.1787 11.468 11.9352C11.7116 11.6916 11.8489 11.3615 11.8499 11.0171V1.91707C11.8489 1.5726 11.7116 1.24254 11.468 0.998963C11.2244 0.755388 10.8944 0.618094 10.5499 0.617065V0.617065ZM10.5499 11.0171H1.4499V1.91707H10.5499V11.0171ZM4.0499 9.71706H2.7499V5.16707H4.0499V9.71706ZM6.6499 9.71706H5.3499V3.21707H6.6499V9.71706ZM9.2499 9.71706H7.9499V7.11707H9.2499V9.71706Z" fill="#002B49" fill-opacity="0.8"/>
</svg>
