<svg width="12" height="12" viewBox="0 0 12 12" fill="none" xmlns="http://www.w3.org/2000/svg">
<path fill-rule="evenodd" clip-rule="evenodd" d="M5.26499 8.7751H6.43499V5.2651H5.26499V8.7751ZM5.85 6.10352e-05C2.6325 6.10352e-05 0 2.63256 0 5.85006C0 9.06756 2.6325 11.7001 5.85 11.7001C9.0675 11.7001 11.7 9.06756 11.7 5.85006C11.7 2.63256 9.0675 6.10352e-05 5.85 6.10352e-05ZM5.84999 10.53C3.27599 10.53 1.16999 8.42398 1.16999 5.84998C1.16999 3.27598 3.27599 1.16998 5.84999 1.16998C8.424 1.16998 10.53 3.27598 10.53 5.84998C10.53 8.42398 8.424 10.53 5.84999 10.53ZM5.26499 4.09506H6.43499V2.92506H5.26499V4.09506Z" fill="#002B49"/>
</svg>
