<svg width="91" height="18" viewBox="0 0 91 18" fill="none" xmlns="http://www.w3.org/2000/svg">
<path d="M24.5601 0.362H21.8375V14.1726H30.6969V11.7848H24.5601V0.362Z" fill="white"/>
<path d="M36.6504 3.53821C35.5801 3.53821 34.6252 3.7654 33.785 4.21852C32.9448 4.67227 32.2917 5.30701 31.8244 6.12275C31.357 6.93848 31.123 7.87256 31.123 8.92435C31.123 9.97677 31.3531 10.9071 31.814 11.7158C32.2741 12.5246 32.9279 13.153 33.7746 13.5998C34.6213 14.0472 35.6003 14.2706 36.711 14.2706C37.6594 14.2706 38.523 14.113 39.3019 13.7973C40.0808 13.4815 40.7411 13.0347 41.2834 12.4556L39.8612 11.0153C39.4818 11.3969 39.0379 11.6892 38.5302 11.893C38.0224 12.0968 37.4905 12.1987 36.9346 12.1987C36.1354 12.1987 35.4615 11.9848 34.9126 11.5576C34.3638 11.1304 34.0014 10.5413 33.8254 9.79198H41.8524C41.8655 9.62111 41.8726 9.36481 41.8726 9.02244C41.8726 7.28655 41.4359 5.93796 40.5619 4.97793C39.6884 4.01854 38.3842 3.53821 36.6504 3.53821ZM33.7648 8.07571C33.8867 7.28655 34.208 6.66509 34.7301 6.21134C35.2516 5.75759 35.8988 5.53104 36.6706 5.53104C37.4964 5.53104 38.1606 5.76139 38.6618 6.22147C39.1631 6.68218 39.4271 7.29984 39.4544 8.07634H33.7648V8.07571Z" fill="white"/>
<path d="M47.4801 12.0222C47.1008 12.0222 46.8159 11.9203 46.6269 11.7165C46.4372 11.5127 46.3427 11.1672 46.3427 10.6805V5.53108H49.4518V3.65659H46.3427V0.362L42.1973 4.38689V5.53108H43.7212V11.1343C43.7212 12.1734 44.0191 12.9594 44.6155 13.4916C45.2112 14.0245 45.9771 14.2909 46.9118 14.2909C47.8595 14.2909 48.7674 14.0346 49.6343 13.5214L49.0249 11.588C48.4011 11.8772 47.8869 12.0222 47.4801 12.0222Z" fill="white"/>
<path d="M59.6488 11.4494C58.9644 11.7386 58.2839 11.8835 57.6067 11.8835C56.7261 11.8835 55.9198 11.6766 55.1885 11.2621C54.4565 10.8476 53.881 10.2824 53.4612 9.56543C53.0408 8.84842 52.8309 8.06306 52.8309 7.20809C52.8309 6.35311 53.0408 5.56775 53.4612 4.85074C53.881 4.13373 54.4565 3.57176 55.1885 3.16421C55.9198 2.75666 56.7261 2.55225 57.6067 2.55225C58.3113 2.55225 59.0054 2.70983 59.6898 3.02562C60.3736 3.34141 60.9667 3.78187 61.468 4.34763L63.0525 2.41429C62.3616 1.71626 61.5279 1.17075 60.5528 0.775853C59.5771 0.381591 58.5818 0.184143 57.5656 0.184143C56.1701 0.184143 54.9004 0.492971 53.7552 1.11126C52.6099 1.72955 51.7059 2.57819 51.0423 3.65656C50.3788 4.73493 50.0464 5.93227 50.0464 7.24732C50.0464 8.56301 50.3716 9.76288 51.0215 10.8482C51.6713 11.9335 52.5656 12.7917 53.7037 13.4233C54.8417 14.0542 56.0945 14.37 57.4633 14.37C58.4794 14.37 59.4819 14.1561 60.4707 13.7289C61.4595 13.3018 62.3264 12.7195 63.0721 11.9829L61.4667 10.247C60.9394 10.759 60.3325 11.1602 59.6488 11.4494Z" fill="white"/>
<path d="M72.7963 4.50461C72.0174 3.84708 70.9237 3.51801 69.5145 3.51801C68.5798 3.51801 67.7631 3.61989 67.0657 3.82367C66.3676 4.02808 65.5926 4.35969 64.7387 4.8204L65.6936 6.59616C66.818 5.93864 67.8948 5.60956 68.9246 5.60956C69.7237 5.60956 70.3332 5.78043 70.7536 6.12279C71.1733 6.46516 71.3832 6.94486 71.3832 7.56315V7.8397H68.2135C66.8995 7.85299 65.8833 8.13904 65.1657 8.69784C64.4474 9.25727 64.0889 10.0293 64.0889 11.016C64.0889 11.6342 64.2446 12.193 64.5562 12.693C64.8678 13.1929 65.311 13.584 65.8872 13.8669C66.4627 14.1498 67.1302 14.2909 67.8889 14.2909C68.6613 14.2909 69.345 14.1726 69.9414 13.9359C70.5372 13.6992 71.0254 13.3511 71.4047 12.8904V14.1726H74.0054L73.9852 7.26698C73.9715 6.08356 73.5752 5.16277 72.7963 4.50461ZM71.3839 10.5027C71.3161 11.016 71.011 11.4469 70.4694 11.795C69.9277 12.1437 69.2772 12.3177 68.5185 12.3177C67.9221 12.3177 67.4515 12.1861 67.1061 11.9228C66.7606 11.6596 66.5879 11.3045 66.5879 10.8577C66.5879 10.3977 66.7534 10.0654 67.0859 9.86164C67.4176 9.65787 67.9358 9.55598 68.6404 9.55598H71.3839V10.5027Z" fill="white"/>
<path d="M84.8463 4.21852C84.0674 3.76477 83.1699 3.53821 82.1537 3.53821C81.3409 3.53821 80.6265 3.69262 80.0099 4.00208C79.3933 4.31154 78.8888 4.7615 78.4958 5.35321V3.61731H75.854V18H78.4958V12.4563C78.9025 13.048 79.4168 13.4992 80.0406 13.8074C80.6637 14.1168 81.382 14.2713 82.1941 14.2713C83.2103 14.2713 84.1046 14.0479 84.8763 13.6004C85.6487 13.1537 86.2444 12.5284 86.6642 11.726C87.084 10.9235 87.2945 9.99639 87.2945 8.94397C87.2945 7.87889 87.0807 6.93848 86.6544 6.12275C86.2281 5.30701 85.6252 4.67227 84.8463 4.21852ZM83.7591 11.1634C83.1901 11.762 82.4588 12.0607 81.5645 12.0607C80.6565 12.0607 79.9187 11.7646 79.3496 11.1728C78.7806 10.5811 78.4964 9.8116 78.4964 8.86423C78.4964 7.93015 78.7813 7.16757 79.3496 6.57586C79.9187 5.98415 80.6565 5.68798 81.5645 5.68798C82.4588 5.68798 83.1901 5.98415 83.7591 6.57586C84.3281 7.16757 84.6123 7.93078 84.6123 8.86423C84.613 9.79894 84.3281 10.5653 83.7591 11.1634Z" fill="white"/>
<path d="M6.3538 8.00229V0.36322H0V14.1719H12.4058V8.00229H6.3538ZM12.1027 10.94H3.54191L6.26516 8.29593H12.1027V10.94ZM0.302438 0.658126H3.02568V11.026L0.302438 13.67V0.658126Z" fill="#FF4D00"/>
<path d="M90.4037 0.579053C90.8013 0.965088 91.0001 1.4296 91.0001 1.97194C91.0001 2.51493 90.8013 2.9807 90.4037 3.37053C90.0061 3.76036 89.5237 3.95528 88.9573 3.95528C88.3909 3.95528 87.9105 3.76226 87.5168 3.37623C87.1231 2.99019 86.9263 2.52568 86.9263 1.98334C86.9263 1.44099 87.1251 0.974581 87.5227 0.584749C87.9203 0.194916 88.4007 0 88.9632 0C89.5257 0 90.0054 0.193018 90.4037 0.579053ZM90.2316 3.20662C90.5783 2.86426 90.7524 2.4548 90.7524 1.97764C90.7524 1.50047 90.581 1.09229 90.2375 0.753718C89.8939 0.415146 89.4729 0.245544 88.9742 0.245544C88.475 0.245544 88.0532 0.415779 87.7084 0.756249C87.363 1.09672 87.1909 1.5068 87.1909 1.98523C87.1909 2.4643 87.3617 2.87312 87.7032 3.21169C88.0448 3.55026 88.4645 3.71986 88.9638 3.71986C89.4618 3.72049 89.8848 3.54899 90.2316 3.20662ZM89.9024 2.66617C89.6476 2.92501 89.3569 3.05411 89.0303 3.05411C88.7037 3.05411 88.4319 2.95475 88.2142 2.75667C87.9965 2.55796 87.8877 2.29723 87.8877 1.97258C87.8877 1.64856 88.0005 1.38656 88.2253 1.18595C88.4502 0.985972 88.7298 0.88535 89.0635 0.88535C89.3973 0.88535 89.671 0.994832 89.8848 1.21316L89.615 1.53528C89.4201 1.37517 89.2285 1.2948 89.0407 1.2948C88.853 1.2948 88.6888 1.35555 88.5486 1.47769C88.4078 1.59983 88.3374 1.75804 88.3374 1.95296C88.3374 2.14788 88.4078 2.31241 88.5486 2.44721C88.6894 2.58201 88.8615 2.64909 89.0661 2.64909C89.2708 2.64909 89.4592 2.55986 89.6313 2.38139L89.9024 2.66617Z" fill="white"/>
</svg>
