<svg width="145" height="42" viewBox="0 0 145 42" fill="none" xmlns="http://www.w3.org/2000/svg">
<path d="M6.97823 0.826978H0.994507V32.3776H20.4656V26.9228H6.97823V0.826978Z" fill="#002B49"/>
<path d="M33.5504 8.08319C31.1982 8.08319 29.0995 8.60222 27.2529 9.63738C25.4064 10.674 23.971 12.1241 22.9438 13.9876C21.9167 15.8512 21.4024 17.9851 21.4024 20.388C21.4024 22.7923 21.9081 24.9175 22.9209 26.7652C23.9323 28.6129 25.3691 30.0485 27.23 31.0692C29.0909 32.0913 31.2426 32.6017 33.6836 32.6017C35.768 32.6017 37.6661 32.2417 39.378 31.5203C41.0899 30.7988 42.541 29.7781 43.7329 28.4553L40.6071 25.1647C39.7733 26.0365 38.7978 26.7045 37.6818 27.17C36.5659 27.6355 35.3969 27.8683 34.175 27.8683C32.4187 27.8683 30.9374 27.3796 29.7312 26.4038C28.525 25.4279 27.7285 24.0819 27.3418 22.3701H44.9835C45.0122 21.9798 45.0279 21.3942 45.0279 20.6121C45.0279 16.6464 44.0681 13.5655 42.1471 11.3723C40.2275 9.18052 37.3609 8.08319 33.5504 8.08319ZM27.2085 18.4492C27.4764 16.6464 28.1827 15.2267 29.3301 14.19C30.4762 13.1534 31.8987 12.6359 33.5948 12.6359C35.4098 12.6359 36.8696 13.1621 37.9712 14.2132C39.0728 15.2657 39.653 16.6767 39.7132 18.4507H27.2085V18.4492Z" fill="#002B49"/>
<path d="M57.3521 27.4649C56.5184 27.4649 55.8923 27.2322 55.4769 26.7666C55.06 26.3011 54.8523 25.5117 54.8523 24.4V12.6359H61.6855V8.35356H54.8523V0.826978L45.7414 10.022V12.6359H49.0906V25.4366C49.0906 27.8105 49.7453 29.6061 51.0561 30.822C52.3654 32.0393 54.0487 32.648 56.1029 32.648C58.1858 32.648 60.1814 32.0624 62.0867 30.8899L60.7472 26.4732C59.3763 27.1339 58.246 27.4649 57.3521 27.4649Z" fill="#002B49"/>
<path d="M84.0962 26.1565C82.592 26.8172 81.0964 27.1483 79.608 27.1483C77.6727 27.1483 75.9006 26.6756 74.2933 25.7286C72.6846 24.7816 71.4196 23.4906 70.4971 21.8525C69.5731 20.2145 69.1118 18.4203 69.1118 16.4671C69.1118 14.5139 69.5731 12.7197 70.4971 11.0817C71.4196 9.44365 72.6846 8.15982 74.2933 7.22876C75.9006 6.29769 77.6727 5.83072 79.608 5.83072C81.1566 5.83072 82.6823 6.19071 84.1864 6.91214C85.6892 7.63357 86.9928 8.63981 88.0944 9.93231L91.5769 5.51554C90.0584 3.92088 88.2262 2.67464 86.0831 1.77249C83.9386 0.87179 81.7511 0.420715 79.5178 0.420715C76.4507 0.420715 73.6601 1.12624 71.1432 2.53874C68.6262 3.95124 66.6392 5.88999 65.1809 8.35355C63.7226 10.8171 62.992 13.5525 62.992 16.5567C62.992 19.5625 63.7068 22.3036 65.1351 24.7831C66.5633 27.2625 68.5288 29.223 71.03 30.6658C73.5312 32.1072 76.2845 32.8287 79.2929 32.8287C81.5262 32.8287 83.7295 32.34 85.9026 31.3641C88.0758 30.3882 89.9811 29.0581 91.6199 27.3753L88.0916 23.4096C86.9326 24.5792 85.5989 25.4958 84.0962 26.1565Z" fill="#002B49"/>
<path d="M112.992 10.2909C111.28 8.78872 108.876 8.03693 105.779 8.03693C103.725 8.03693 101.93 8.26969 100.397 8.73523C98.8628 9.2022 97.1595 9.95978 95.2829 11.0123L97.3816 15.0691C99.8527 13.5669 102.219 12.8151 104.483 12.8151C106.239 12.8151 107.578 13.2055 108.502 13.9876C109.425 14.7698 109.886 15.8657 109.886 17.2782V17.91H102.92C100.032 17.9403 97.7984 18.5938 96.2212 19.8704C94.6426 21.1484 93.8547 22.9123 93.8547 25.1662C93.8547 26.5787 94.197 27.8553 94.8818 28.9974C95.5665 30.1396 96.5407 31.033 97.807 31.6793C99.072 32.3255 100.539 32.6479 102.206 32.6479C103.904 32.6479 105.407 32.3776 106.717 31.8369C108.027 31.2962 109.1 30.501 109.934 29.4485V32.3776H115.649L115.605 16.6016C115.575 13.898 114.704 11.7944 112.992 10.2909ZM109.888 23.9937C109.739 25.1662 109.068 26.1507 107.878 26.9459C106.687 27.7425 105.258 28.1401 103.59 28.1401C102.279 28.1401 101.245 27.8394 100.486 27.2379C99.7266 26.6365 99.347 25.8255 99.347 24.8048C99.347 23.7537 99.7109 22.9947 100.441 22.5291C101.171 22.0636 102.31 21.8308 103.858 21.8308H109.888V23.9937Z" fill="#002B49"/>
<path d="M139.475 9.63738C137.764 8.60077 135.791 8.08319 133.558 8.08319C131.771 8.08319 130.201 8.43596 128.846 9.14293C127.491 9.8499 126.382 10.8778 125.518 12.2296V8.26391H119.712V41.1215H125.518V28.4567C126.412 29.8085 127.542 30.8393 128.913 31.5434C130.283 32.2504 131.861 32.6031 133.646 32.6031C135.88 32.6031 137.845 32.0928 139.541 31.0706C141.239 30.0499 142.548 28.6215 143.471 26.7883C144.393 24.9551 144.856 22.8371 144.856 20.4328C144.856 17.9996 144.386 15.8512 143.449 13.9876C142.512 12.1241 141.187 10.674 139.475 9.63738ZM137.086 25.503C135.835 26.8707 134.228 27.5531 132.263 27.5531C130.267 27.5531 128.645 26.8765 127.395 25.5247C126.144 24.173 125.52 22.4149 125.52 20.2506C125.52 18.1167 126.146 16.3746 127.395 15.0228C128.645 13.671 130.267 12.9944 132.263 12.9944C134.228 12.9944 135.835 13.671 137.086 15.0228C138.337 16.3746 138.961 18.1182 138.961 20.2506C138.963 22.386 138.337 24.1368 137.086 25.503Z" fill="#002B49"/>
</svg>
