<svg width="12" height="13" viewBox="0 0 12 13" fill="none" xmlns="http://www.w3.org/2000/svg">
<path d="M1.4499 12.0973C1.10544 12.0963 0.775288 11.9591 0.531714 11.7155C0.288139 11.472 0.150931 11.1418 0.149902 10.7973V1.69734C0.150931 1.35287 0.288139 1.02272 0.531714 0.77915C0.775288 0.535576 1.10544 0.398368 1.4499 0.397339H9.2499L11.8499 2.99734V10.7973C11.8489 11.1418 11.7117 11.472 11.4681 11.7155C11.2245 11.9591 10.8944 12.0963 10.5499 12.0973H1.4499ZM1.4499 10.7973H10.5499V3.51721L8.73003 1.69734H1.4499V10.7973ZM4.0499 8.19734C4.0499 7.68017 4.2555 7.18432 4.62119 6.81863C4.98689 6.45293 5.48273 6.24734 5.9999 6.24734C6.51707 6.24734 7.01292 6.45293 7.37861 6.81863C7.74431 7.18432 7.9499 7.68017 7.9499 8.19734C7.9499 8.71451 7.74431 9.21035 7.37861 9.57605C7.01292 9.94175 6.51707 10.1473 5.9999 10.1473C5.48273 10.1473 4.98689 9.94175 4.62119 9.57605C4.2555 9.21035 4.0499 8.71451 4.0499 8.19734ZM2.0999 4.94734V2.34734H7.9499V4.94734H2.0999Z" fill="#002B49" fill-opacity="0.8"/>
</svg>
